<svg width="168" height="40" viewBox="0 0 168 40" fill="none" xmlns="http://www.w3.org/2000/svg">
<path fill-rule="evenodd" clip-rule="evenodd" d="M80.2978 20.8783H81.4483C81.3694 21.6219 81.1952 22.2941 80.9241 22.8914C80.6531 23.4905 80.3042 23.9979 79.8758 24.4135C79.4423 24.8357 78.9266 25.1641 78.3607 25.3783C77.7802 25.6053 77.1347 25.7179 76.4247 25.7179C75.4768 25.7179 74.6449 25.5461 73.9286 25.2012C73.214 24.857 72.6178 24.3984 72.1424 23.8226C71.6699 23.2479 71.3152 22.582 71.0772 21.8262C70.8385 21.054 70.7189 20.2499 70.7225 19.4416C70.7225 18.6062 70.8409 17.811 71.0772 17.0557C71.3015 16.3255 71.663 15.6448 72.1424 15.0501C72.6184 14.4696 73.214 14.0064 73.9286 13.6633C74.6449 13.3191 75.4768 13.1467 76.4247 13.1467C76.9994 13.1467 77.5596 13.2308 78.1082 13.4015C78.6428 13.564 79.1473 13.8189 79.5954 14.1538C80.0424 14.4878 80.4215 14.9041 80.7123 15.3804C81.0124 15.8651 81.2016 16.423 81.2812 17.0551H80.1306C80.037 16.6149 79.8679 16.1943 79.6308 15.8117C79.4085 15.4543 79.1217 15.1413 78.785 14.8887C78.4516 14.6412 78.0798 14.4502 77.6844 14.3233C77.2774 14.1925 76.8523 14.1267 76.4247 14.1283C75.6242 14.1283 74.934 14.2804 74.3611 14.5851C73.8029 14.8743 73.319 15.2883 72.947 15.7949C72.5757 16.3072 72.3011 16.883 72.1366 17.494C71.9607 18.1282 71.8721 18.7834 71.8731 19.4416C71.8731 20.0935 71.9601 20.7396 72.1366 21.3769C72.3102 22.0155 72.5813 22.5849 72.947 23.0865C73.3194 23.5927 73.8033 24.0066 74.3611 24.2962C74.934 24.5998 75.6242 24.7537 76.4247 24.7537C76.9866 24.7537 77.4957 24.6515 77.9468 24.4489C78.3875 24.2529 78.7847 23.9711 79.1153 23.62C79.448 23.2594 79.7166 22.8445 79.9094 22.3934C80.112 21.9255 80.2415 21.4193 80.2984 20.8783H80.2978ZM90.5517 19.3301C90.7316 19.8897 90.821 20.4841 90.821 21.1146C90.821 21.7473 90.7316 22.3429 90.5517 22.9007C90.37 23.458 90.1064 23.9474 89.7564 24.3636C89.4023 24.7846 88.9599 25.1227 88.4607 25.3539C87.9487 25.596 87.3589 25.7179 86.6931 25.7179C86.029 25.7179 85.4392 25.596 84.9255 25.3539C84.4272 25.1222 83.9858 24.7842 83.6322 24.3636C83.274 23.9326 83.0038 23.4357 82.8369 22.9007C82.6526 22.3234 82.561 21.7205 82.5652 21.1146C82.5612 20.5091 82.6529 19.9069 82.8369 19.3301C83.0168 18.7711 83.2815 18.2852 83.6322 17.8673C83.9862 17.4452 84.4274 17.1048 84.9255 16.8694C85.4392 16.6209 86.0284 16.4961 86.6931 16.4961C87.3589 16.4961 87.9487 16.6209 88.4607 16.8694C88.9605 17.1056 89.4011 17.4452 89.7564 17.8678C90.1064 18.2852 90.37 18.7711 90.5517 19.3307V19.3301ZM89.7564 21.1146C89.7562 20.654 89.6905 20.1959 89.5613 19.7539C89.4408 19.3254 89.2457 18.9216 88.9849 18.561C88.7327 18.2122 88.4066 17.9234 88.03 17.7152C87.6457 17.5004 87.201 17.3936 86.6931 17.3936C86.1858 17.3936 85.7411 17.5004 85.3568 17.7152C84.9799 17.9238 84.6534 18.2125 84.4002 18.561C84.141 18.9223 83.9465 19.326 83.8255 19.7539C83.6966 20.1959 83.6315 20.6541 83.6322 21.1146C83.6322 21.5778 83.696 22.0317 83.8255 22.477C83.9474 22.9054 84.1407 23.3088 84.4002 23.6699C84.6533 24.0205 84.9806 24.3084 85.3568 24.5174C85.7411 24.7305 86.1858 24.839 86.6931 24.839C87.2005 24.839 87.6457 24.7305 88.0294 24.5174C88.4064 24.3086 88.7326 24.0192 88.9849 23.6699C89.2454 23.3091 89.4405 22.9053 89.5613 22.477C89.6908 22.0344 89.7564 21.5757 89.7564 21.1146ZM92.429 25.4816H93.4954V16.7521H92.429V25.4816ZM92.429 15.1093H93.4954V13.4015H92.429V15.1093ZM101.938 17.4023C101.689 17.1132 101.358 16.892 100.948 16.7336C100.536 16.5768 100.025 16.4955 99.417 16.4955C98.8131 16.491 98.2205 16.6587 97.7086 16.9791C97.1879 17.3007 96.828 17.7274 96.6254 18.2562H96.5906V16.7504H95.5253V25.4816H96.5906V20.3878C96.6027 19.9582 96.6724 19.5617 96.8024 19.196C96.9203 18.8477 97.1044 18.5254 97.3446 18.2469C97.5782 17.9808 97.866 17.7679 98.1887 17.6223C98.5224 17.4696 98.9033 17.3936 99.3317 17.3936C99.7601 17.3936 100.119 17.4603 100.406 17.5968C100.694 17.732 100.923 17.9178 101.092 18.1558C101.261 18.3914 101.38 18.6724 101.447 18.9934C101.514 19.3139 101.547 19.6592 101.547 20.0325V25.4816H102.614V19.8636C102.614 19.344 102.562 18.8779 102.462 18.4588C102.361 18.0426 102.184 17.689 101.938 17.4023ZM112.173 19.3301C112.353 19.8897 112.444 20.4841 112.444 21.1146C112.444 21.7473 112.353 22.3429 112.173 22.9007C112.005 23.4354 111.735 23.9322 111.378 24.3636C111.024 24.7842 110.582 25.1222 110.084 25.3539C109.57 25.596 108.981 25.7179 108.316 25.7179C107.648 25.7179 107.059 25.596 106.548 25.3539C106.049 25.1231 105.607 24.785 105.253 24.3636C104.903 23.9474 104.639 23.458 104.458 22.9007C104.274 22.3234 104.182 21.7206 104.186 21.1146C104.186 20.4836 104.276 19.8897 104.458 19.3301C104.639 18.7711 104.903 18.2852 105.253 17.8673C105.607 17.4445 106.049 17.1039 106.548 16.8694C107.059 16.6209 107.648 16.4961 108.316 16.4961C108.981 16.4961 109.57 16.6209 110.084 16.8694C110.582 17.1055 111.023 17.4461 111.378 17.8678C111.735 18.2992 112.005 18.7961 112.173 19.3307V19.3301ZM111.378 21.1146C111.378 20.6542 111.313 20.1991 111.184 19.7539C111.062 19.3258 110.867 18.9222 110.608 18.561C110.355 18.2124 110.029 17.9237 109.652 17.7152C109.269 17.5004 108.823 17.3936 108.316 17.3936C107.809 17.3936 107.362 17.5004 106.98 17.7152C106.602 17.9233 106.276 18.2121 106.022 18.561C105.763 18.922 105.569 19.3257 105.448 19.7539C105.188 20.6429 105.188 21.588 105.448 22.477C105.568 22.9054 105.764 23.3088 106.022 23.6699C106.275 24.0196 106.602 24.3091 106.98 24.5174C107.362 24.7305 107.809 24.839 108.316 24.839C108.823 24.839 109.269 24.7305 109.652 24.5174C110.029 24.3083 110.355 24.0189 110.608 23.6699C110.868 23.3088 111.063 22.9051 111.184 22.477C111.313 22.0344 111.378 21.5756 111.378 21.1146ZM123.203 16.4961C122.634 16.4951 122.075 16.641 121.579 16.9199C121.072 17.2014 120.689 17.6298 120.43 18.2057C120.27 17.6298 119.958 17.2014 119.49 16.9199C119.022 16.6378 118.5 16.4961 117.925 16.4961C117.215 16.4961 116.632 16.65 116.174 16.953C115.717 17.2577 115.348 17.6798 115.065 18.2225H115.015V16.7504H114.035V25.4816H115.1V20.6072C115.1 20.1469 115.15 19.719 115.251 19.3301C115.353 18.9418 115.508 18.6033 115.717 18.3154C115.928 18.0264 116.207 17.7941 116.529 17.6391C116.861 17.476 117.254 17.3936 117.705 17.3936C118.044 17.3936 118.332 17.4499 118.568 17.5625C118.794 17.6681 118.99 17.8266 119.135 18.0275C119.275 18.2254 119.377 18.457 119.44 18.7206C119.502 18.9876 119.533 19.2651 119.533 19.5588V25.4822H120.598V20.5399C120.598 20.1341 120.636 19.7411 120.709 19.3632C120.772 19.0073 120.902 18.6664 121.09 18.3578C121.268 18.0655 121.519 17.8238 121.817 17.6554C122.12 17.4812 122.504 17.393 122.967 17.393C123.734 17.393 124.269 17.5817 124.575 17.9596C124.878 18.3375 125.031 18.886 125.031 19.6082V25.481H126.097V19.5588C126.097 17.5184 125.133 16.4961 123.203 16.4961ZM128.144 25.4822H129.209V16.7515H128.144V25.4822ZM128.144 15.1093H129.209V13.4015H128.144V15.1093ZM62.0017 20C62.0017 26.6176 56.6182 32 50 32C43.3841 32 38 26.6176 38 20C38 13.3835 43.3841 8 50 8C56.6176 8 62.0017 13.3835 62.0017 20ZM61.3388 20C61.3388 13.7481 56.2525 8.66293 50 8.66293C43.7498 8.66293 38.6647 13.7481 38.6647 20C38.6647 26.2508 43.7498 31.3371 50 31.3371C56.2519 31.3371 61.3388 26.2502 61.3388 20ZM57.1302 16.2036L56.9154 19.1966C57.1588 19.2709 57.3719 19.4213 57.5235 19.6257C57.6751 19.83 57.7572 20.0776 57.7577 20.332C57.7577 20.7924 57.4942 21.1871 57.1116 21.3862L58.0033 24.5969C58.2396 24.6521 58.4224 24.8518 58.4224 25.1043C58.4223 25.174 58.4085 25.2431 58.3818 25.3075C58.355 25.3719 58.3158 25.4304 58.2664 25.4797C58.217 25.529 58.1585 25.568 58.094 25.5947C58.0295 25.6213 57.9604 25.6349 57.8907 25.6349C57.7671 25.634 57.648 25.5887 57.5551 25.5072L53.6426 26.7425C53.6344 26.8952 53.5822 27.0423 53.4922 27.166C53.4022 27.2896 53.2783 27.3846 53.1355 27.4394C52.9926 27.4941 52.837 27.5064 52.6874 27.4746C52.5378 27.4428 52.4006 27.3684 52.2924 27.2603L48.9853 28.7405C48.9975 28.809 49.0068 28.8775 49.0068 28.9507C49.0065 29.2669 48.8809 29.5702 48.6576 29.794C48.4342 30.0179 48.1313 30.1442 47.815 30.1453C47.5779 30.1454 47.3461 30.0749 47.1491 29.9428C46.9522 29.8107 46.799 29.623 46.7091 29.4035C46.6193 29.1841 46.5967 28.9429 46.6444 28.7105C46.692 28.4782 46.8077 28.2654 46.9768 28.0991L43.8885 23.7924C43.5867 23.9572 43.25 24.042 42.9069 24.0443C42.3442 24.0431 41.805 23.8185 41.4078 23.4199C41.0106 23.0213 40.7879 22.4813 40.7887 21.9185C40.7901 21.4297 40.96 20.9562 41.2699 20.5781C41.5797 20.1999 42.0105 19.9402 42.4896 19.8427L42.1482 14.9514C41.9994 14.9184 41.8689 14.8298 41.7834 14.7036C41.6979 14.5774 41.6639 14.4233 41.6884 14.2729C41.7129 14.1225 41.794 13.9871 41.9151 13.8946C42.0363 13.8021 42.1882 13.7594 42.3398 13.7753C42.4588 13.7962 42.5702 13.8508 42.6573 13.935L47.0366 11.7454C47.0138 11.6379 47.0135 11.527 47.0358 11.4195C47.0581 11.3119 47.1024 11.2102 47.1661 11.1207C47.2297 11.0312 47.3112 10.9559 47.4054 10.8996C47.4996 10.8432 47.6045 10.807 47.7135 10.7933C47.8224 10.7795 47.933 10.7885 48.0383 10.8197C48.1436 10.8509 48.2412 10.9036 48.3251 10.9745C48.4089 11.0454 48.4772 11.1329 48.5255 11.2315C48.5738 11.3301 48.6011 11.4377 48.6057 11.5474L55.7127 14.0203C55.8407 13.8025 56.0233 13.6217 56.2425 13.4959C56.4616 13.3701 56.7098 13.3036 56.9625 13.3028C57.3494 13.3027 57.7206 13.4562 57.9944 13.7296C58.2681 14.0031 58.4221 14.3741 58.4224 14.761C58.4218 15.1183 58.2897 15.4628 58.0514 15.7289C57.8131 15.9951 57.4852 16.1642 57.1302 16.2041V16.2036ZM56.5207 19.142L56.7308 16.1978C56.4948 16.1595 56.2718 16.0639 56.0813 15.9194C55.8909 15.7748 55.7388 15.5858 55.6384 15.3688L49.2488 16.3075C49.2061 16.5705 49.0847 16.8144 48.9005 17.007L51.6765 20.7099C51.7543 20.6809 51.8367 20.6629 51.9232 20.6629C52.2279 20.6629 52.4886 20.8504 52.5966 21.1157L55.3853 20.4783C55.3794 20.4296 55.3719 20.3825 55.3719 20.332C55.3719 19.6877 55.8839 19.1664 56.5207 19.142ZM52.5635 25.9559L51.8901 22.1176C51.7533 22.1117 51.6209 22.0673 51.5082 21.9896C51.3955 21.9119 51.3069 21.804 51.2527 21.6782L45.0217 21.8599C45.0234 21.8796 45.0281 21.9005 45.0281 21.9226C45.0281 22.1507 44.9822 22.369 44.9154 22.5728L52.2721 26.1544C52.3533 26.0673 52.452 26 52.5635 25.9559ZM44.5346 20.577C44.7506 20.8324 44.9015 21.136 44.9747 21.4623L51.2057 21.2823C51.2254 21.1546 51.2771 21.0368 51.3531 20.941L48.5819 17.2444C48.388 17.3545 48.1692 17.4132 47.9462 17.4151C47.7616 17.4151 47.588 17.3767 47.4313 17.31L44.5346 20.577ZM55.5147 14.6525L48.3514 12.161C48.2783 12.2277 48.1929 12.2829 48.0983 12.3206L48.1703 14.7848C48.6428 14.8661 49.0312 15.1964 49.1914 15.6457L55.5072 14.7163C55.5089 14.6931 55.5118 14.6734 55.5147 14.6525ZM42.8854 19.8026C42.893 19.8026 42.8994 19.8009 42.9069 19.8009C43.3092 19.8009 43.7022 19.917 44.0406 20.1347L46.9054 16.9031C46.721 16.6706 46.62 16.383 46.6186 16.0863C46.6197 15.7655 46.7373 15.456 46.9496 15.2155C47.1619 14.975 47.4544 14.8199 47.7726 14.779L47.7007 12.3636C47.5128 12.3369 47.3409 12.2433 47.2165 12.1L42.832 14.2914C42.8371 14.3153 42.8398 14.3396 42.8402 14.364C42.8402 14.5834 42.7194 14.7761 42.5412 14.8777L42.8854 19.8026ZM48.8471 28.3649L52.0892 26.9143C52.069 26.8428 52.0579 26.7691 52.0561 26.6949C52.0561 26.678 52.0602 26.6583 52.0619 26.6397L44.6943 23.0581C44.5657 23.255 44.4061 23.4298 44.2217 23.5759L47.3059 27.8744C47.4627 27.7984 47.6368 27.7583 47.8139 27.7572C48.2585 27.7572 48.6428 28.0039 48.8471 28.3649ZM56.7326 21.5081C56.6774 21.5157 56.6223 21.5244 56.5642 21.5244C56.3426 21.5238 56.1255 21.4611 55.9376 21.3434C55.7498 21.2257 55.5986 21.0577 55.5014 20.8586L52.6413 21.5139C52.6122 21.6788 52.5252 21.8309 52.3974 21.9406L53.0981 25.942C53.3036 26.0105 53.4714 26.1567 53.5642 26.3489L57.3694 25.1484C57.3676 25.1327 57.3601 25.1194 57.3601 25.1037C57.3601 24.9168 57.464 24.7595 57.6097 24.6649L56.7326 21.5075V21.5081Z" fill="white"/>
</svg>
