<svg width="168" height="40" viewBox="0 0 168 40" fill="none" xmlns="http://www.w3.org/2000/svg">
<path d="M38.7504 19.9986H38.7515L35.9997 17.2468L33.9658 19.2801L33.7321 19.5138L33.2502 19.9963L33.2462 19.9997L33.2502 20.0037L35.9997 22.7532L38.7515 20.0014L38.7527 19.9997L38.7504 19.9986ZM52.2273 13.8156H58.127C59.591 13.8156 60.698 14.191 61.4482 14.9423C62.0285 15.5243 62.3186 16.2456 62.3186 17.1063V17.1426C62.3186 17.5058 62.2737 17.8276 62.1833 18.1063C62.0986 18.3733 61.977 18.6272 61.8218 18.8604C61.6756 19.0803 61.4994 19.2795 61.2979 19.4511C61.1011 19.6197 60.8862 19.7661 60.6572 19.8875C61.3929 20.1667 61.972 20.5455 62.3946 21.0239C62.8166 21.5028 63.0279 22.1666 63.0279 23.0152V23.0515C63.0279 23.6329 62.9162 24.1424 62.6922 24.5788C62.467 25.0166 62.1364 25.3915 61.7302 25.6697C61.3123 25.9604 60.8103 26.1786 60.2237 26.3243C59.6365 26.4693 58.9859 26.5419 58.2721 26.5419H52.2285L52.2273 13.8156ZM57.5363 18.9606C58.1546 18.9606 58.6457 18.8547 59.0089 18.6422C59.3728 18.4304 59.5547 18.0878 59.5547 17.6152V17.5789C59.5547 17.1546 59.397 16.8305 59.0821 16.606C58.7666 16.3815 58.3118 16.2698 57.7183 16.2698H54.9549V18.9606H57.5363ZM58.2819 24.0877C58.9001 24.0877 59.3849 23.976 59.7366 23.7515C60.0878 23.527 60.264 23.1787 60.264 22.706V22.6698C60.264 22.2455 60.0999 21.9099 59.7729 21.6606C59.4453 21.413 58.9186 21.2881 58.1909 21.2881H54.9549V24.0883L58.2819 24.0877ZM66.5401 13.8156H69.3403V26.5424H66.5401V13.8156ZM73.5814 13.8156H76.1628L82.127 21.6519V13.8156H84.8903V26.5424H82.5087L76.3447 18.4517V26.543H73.5814V13.8156ZM93.3668 13.7247H95.9488L101.403 26.5424H98.4761L97.312 23.6882H91.9304L90.7675 26.5424H87.9121L93.3668 13.7247ZM96.3126 21.215L94.6212 17.0879L92.931 21.2156L96.3126 21.215ZM104.426 13.8156H107.008L112.971 21.6519V13.8156H115.734V26.5424H113.353L107.189 18.4517V26.543H104.426V13.8156ZM125.811 26.7606C124.877 26.7606 124.011 26.5908 123.211 26.2517C122.41 25.9126 121.72 25.4486 121.138 24.8603C120.55 24.2636 120.087 23.556 119.774 22.7786C119.447 21.9784 119.284 21.124 119.284 20.215V20.1788C119.284 19.2697 119.447 18.4183 119.774 17.6244C120.091 16.8466 120.554 16.1368 121.138 15.5335C121.72 14.9336 122.417 14.4604 123.228 14.1156C124.04 13.7702 124.938 13.5974 125.92 13.5974C126.513 13.5974 127.056 13.6458 127.547 13.7425C128.038 13.8404 128.483 13.9728 128.883 14.1426C129.274 14.3079 129.646 14.5151 129.992 14.7609C130.329 15.001 130.645 15.2687 130.938 15.5611L129.156 17.6152C128.658 17.1667 128.153 16.815 127.638 16.5605C127.122 16.3067 126.544 16.1788 125.901 16.1788C125.368 16.1788 124.874 16.2825 124.42 16.488C123.973 16.688 123.574 16.979 123.247 17.3423C122.916 17.7124 122.657 18.1409 122.483 18.606C122.299 19.0973 122.207 19.618 122.211 20.1425V20.1788C122.211 20.7239 122.302 21.2392 122.483 21.7239C122.665 22.2092 122.916 22.6335 123.238 22.9962C123.561 23.3619 123.958 23.6562 124.401 23.8603C124.856 24.0727 125.356 24.1787 125.901 24.1787C126.629 24.1787 127.243 24.0451 127.747 23.7786C128.25 23.512 128.75 23.1487 129.247 22.6876L131.029 24.4878C130.714 24.8275 130.373 25.1441 130.011 25.4331C129.654 25.7152 129.266 25.9558 128.856 26.1516C128.438 26.3513 127.98 26.5027 127.483 26.6058C126.986 26.7088 126.429 26.7606 125.811 26.7606ZM134.324 13.8156H143.906V16.3067H137.088V18.8881H143.088V21.3791H137.088V24.0514H143.997V26.5424H134.324V13.8156ZM31.3383 18.085L28.6263 15.3735L35.9997 8L43.3749 15.3758L40.6634 18.0873L35.9997 13.4242L31.3383 18.085ZM26.7115 17.2876L29.423 19.9991L26.7115 22.7118L24 19.9997L26.7115 17.2876ZM31.3389 21.915L35.9997 26.5758L40.6628 21.9127L43.376 24.6231L43.3749 24.6248L35.9997 32L28.6268 24.6271L28.6228 24.6237L31.3389 21.915ZM47.9994 20.0009L45.2879 22.7124L42.5764 20.0009L45.2879 17.2894L47.9994 20.0009Z" fill="white"/>
</svg>
