<svg width="168" height="40" viewBox="0 0 168 40" fill="none" xmlns="http://www.w3.org/2000/svg">
<path fill-rule="evenodd" clip-rule="evenodd" d="M49.3155 8C46.0061 8 43.3276 10.6639 43.3276 13.9567V16.1893C42.1655 16.3987 41 16.6774 41 17.04V28.6906C41 28.6906 41 29.013 41.364 29.1655C42.6828 29.6973 47.8726 31.525 49.0645 31.9431C49.2184 32 49.2614 32 49.3016 32C49.3585 32 49.3848 32 49.5387 31.9431C50.7313 31.525 55.9336 29.6973 57.2531 29.1655C57.3483 29.1283 57.4315 29.0655 57.4933 28.984C57.555 28.9025 57.5931 28.8055 57.6032 28.7038V17.04C57.6032 16.6774 56.455 16.3855 55.2895 16.1893V13.9567C55.3061 10.6639 52.6117 8 49.3155 8ZM49.3155 10.8469C51.2652 10.8469 52.4439 12.0194 52.4439 13.9601V15.9002C50.362 15.7473 48.2717 15.7473 46.1898 15.9002V13.9601C46.1898 12.0166 47.3692 10.8469 49.3155 10.8469ZM54.3077 19.342C54.3077 18.9669 52.0231 18.7575 49.3016 18.7575C46.5802 18.7575 44.2955 18.9537 44.3233 19.3288V26.598C44.3233 26.7083 44.3392 26.7214 44.4363 26.7644C44.5334 26.8074 49.0777 28.4389 49.0777 28.4389C49.0777 28.4389 49.2579 28.5082 49.3148 28.5082C49.3689 28.5082 49.5519 28.4528 49.5519 28.4528C49.5519 28.4528 54.0969 26.8213 54.194 26.7776C54.2945 26.7381 54.3077 26.7249 54.3077 26.6112V19.342ZM65.3266 26.711V18.7499H62.4034V15.8953H71.5183V18.7499H68.6235V26.711H65.3266ZM77.4035 23.3101L78.904 26.711V26.7076H82.6412L80.672 22.8816C81.5436 22.4559 82.6287 21.4685 82.6287 19.6013C82.6287 17.5753 81.2628 15.8953 78.7154 15.8953H72.9133V26.711H76.2103V23.3101H77.4035ZM78.221 18.7596C78.7695 18.7596 79.2929 19.014 79.2929 19.6013C79.2929 20.2011 78.7702 20.4555 78.221 20.468H76.2103V18.7596H78.221ZM84.358 26.711V15.8953H92.6027V18.7499H87.6424V19.8176H92.4814V22.6715H87.6424V23.8592H92.6027V26.711H84.358ZM94.316 26.7235V24.1234L98.4588 18.763H94.316V15.9085H102.8V18.4836L98.644 23.8717H102.921V26.727L94.316 26.7235ZM109.678 15.7206C106.314 15.7206 103.726 18.0003 103.726 21.3222C103.726 24.6434 106.314 26.9107 109.678 26.9107C113.042 26.9107 115.631 24.6434 115.631 21.3222C115.631 17.9879 113.029 15.7206 109.678 15.7206ZM109.665 18.6133C111.248 18.6133 112.279 19.8142 112.279 21.3222C112.279 22.8303 111.261 24.0305 109.665 24.0305C108.082 24.0305 107.051 22.831 107.051 21.3222C107.051 19.8142 108.082 18.6133 109.665 18.6133ZM121.5 23.3226L123 26.7235V26.7201H126.737L124.768 22.8941C125.639 22.4684 126.724 21.481 126.724 19.6145C126.724 17.5878 125.358 15.9085 122.812 15.9085H117.009V26.7235H120.306V23.3226H121.5ZM122.33 18.7603C122.878 18.7603 123.402 19.014 123.402 19.6013C123.402 20.2011 122.882 20.4555 122.33 20.468H120.319V18.7596L122.33 18.7603Z" fill="white"/>
</svg>
