<svg width="168" height="40" viewBox="0 0 168 40" fill="none" xmlns="http://www.w3.org/2000/svg">
<path fill-rule="evenodd" clip-rule="evenodd" d="M126.362 17.703C126.362 17.703 125.639 16.407 125.639 15.4048V13.767C125.639 13.2294 126.036 12.8138 126.526 12.8138C127.015 12.8138 127.412 13.2294 127.412 13.767V15.747L128.806 15.339C128.896 15.3119 128.975 15.2564 129.03 15.1806C129.086 15.1049 129.116 15.0131 129.115 14.919L129.114 13.5472C129.114 12.3736 128.205 11.2979 127.085 11.2734H126.036C124.87 11.2734 123.937 12.3491 123.937 13.5472V15.3074C123.937 15.3074 123.866 16.456 124.683 18.0208L126.689 21.9568C126.689 21.9568 127.412 23.2768 127.412 24.279V26.2346C127.412 26.7722 127.015 27.1878 126.526 27.1878C126.036 27.1878 125.639 26.7722 125.639 26.259V23.2763L124.245 23.6848C124.155 23.712 124.076 23.7676 124.02 23.8433C123.964 23.919 123.935 24.0108 123.936 24.1048L123.937 26.5523C123.96 27.7259 124.846 28.6792 125.965 28.7282H127.015C128.182 28.7282 129.114 27.7499 129.114 26.5523V24.3765C129.114 24.3765 129.184 23.2278 128.368 21.663L126.362 17.703ZM117.183 26.2346C117.183 26.7482 116.786 27.1634 116.297 27.1634H116.04C115.55 27.1634 115.177 26.7482 115.177 26.2346V11.4448H113.498L113.497 26.6258C113.497 27.8238 114.431 28.7282 115.573 28.7282H116.856C117.952 28.7037 118.862 27.7994 118.862 26.6258L118.862 11.4448H117.183V26.2346ZM106.497 25.9168C106.497 26.5768 106.077 26.8211 105.611 26.8211H104.515V13.205H105.611C106.077 13.205 106.497 13.4498 106.497 14.0848V25.9168ZM106.077 11.4448H102.835V28.5568H106.077C107.22 28.5568 108.13 27.6035 108.153 26.4054V13.5957C108.13 12.3981 107.22 11.4448 106.077 11.4448ZM95.7879 26.2346C95.7879 26.7722 95.3914 27.1878 94.9018 27.1878H94.6455C94.1554 27.1638 93.7589 26.7482 93.7589 26.2346V13.767C93.7589 13.2534 94.1554 12.8382 94.6455 12.8138H94.9018C95.3914 12.8138 95.7879 13.2294 95.7879 13.767V26.2346ZM95.4615 11.2734H94.1789C93.0125 11.2734 92.0799 12.2512 92.0799 13.4493V26.5768C92.1029 27.7504 93.036 28.7282 94.1789 28.7282H95.4615C96.5808 28.6792 97.4674 27.7504 97.4904 26.5768V13.4493C97.4904 12.2757 96.5808 11.3229 95.4615 11.2734ZM87.2741 11.4448H85.5591L84.0149 16.9461L82.4703 11.4448H80.7557L83.1571 20.0008L80.7552 28.5568H82.4698L84.0144 23.055L85.5586 28.5568H87.2736L84.8722 20.0008L87.2741 11.4448ZM76.2168 26.8216H72.7186V20.4654H74.6885C74.782 20.4648 74.8727 20.4335 74.9468 20.3765C75.0209 20.3195 75.0743 20.2398 75.0989 20.1496L75.5045 18.7048H72.7186V13.2054H75.4008C75.4945 13.2048 75.5853 13.1736 75.6595 13.1165C75.7337 13.0593 75.7872 12.9795 75.8117 12.8891L76.2168 11.4453H71.0391V28.5573H75.4075C75.5011 28.5567 75.5919 28.5255 75.6661 28.4685C75.7403 28.4115 75.7938 28.3317 75.8184 28.2414L76.2168 26.8221V26.8216Z" fill="white"/>
<path fill-rule="evenodd" clip-rule="evenodd" d="M43.7232 8V10.5272C43.7232 10.9616 43.8912 11.3778 44.1922 11.684L50.747 18.38L57.3014 11.684C57.6028 11.3744 57.7712 10.9592 57.7704 10.5272V8.00048L50.7475 15.175L43.7232 8ZM60.0192 12.825C59.5944 12.825 59.1874 12.9978 58.8864 13.304L52.333 20L58.8816 26.6912C59.029 26.8425 59.2051 26.9627 59.3997 27.045C59.5942 27.1273 59.8032 27.1698 60.0144 27.1702H62.4883L55.4698 20L62.4936 12.825H60.0192ZM39 12.825L46.0238 20L39.0048 27.1698H41.4787C41.903 27.1698 42.311 26.997 42.6115 26.6907L49.1606 20L42.6067 13.304C42.4593 13.1527 42.2832 13.0324 42.0887 12.9502C41.8941 12.8679 41.6851 12.8253 41.4739 12.825H39ZM44.1922 28.3155C43.8908 28.6251 43.7224 29.0403 43.7232 29.4723V32L50.747 24.825L57.7709 31.9995V29.4728C57.7709 29.0389 57.6019 28.6227 57.3014 28.316L50.747 21.62L44.1922 28.3155Z" fill="white"/>
</svg>
