<svg width="168" height="40" viewBox="0 0 168 40" fill="none" xmlns="http://www.w3.org/2000/svg">
<path fill-rule="evenodd" clip-rule="evenodd" d="M42.1862 8.15713L55.7697 16.0019V24.0015L35 12.0015L41.6642 8.15713C41.8291 8.06221 42.032 8.06221 42.1975 8.15713" fill="white"/>
<path fill-rule="evenodd" clip-rule="evenodd" d="M55.7708 8L48.8516 11.9998L55.7708 16.0002V8Z" fill="#EBECEE"/>
<path fill-rule="evenodd" clip-rule="evenodd" d="M55.7697 8L62.4338 11.8444C62.5156 11.8916 62.5835 11.9597 62.6304 12.0417C62.6773 12.1238 62.7016 12.2168 62.7008 12.3113V28.0002L55.7697 23.9998V8Z" fill="#EBECEE"/>
<path fill-rule="evenodd" clip-rule="evenodd" d="M62.7022 28.0029L56.0386 31.8472C55.9572 31.893 55.8654 31.9171 55.772 31.9171C55.6786 31.9171 55.5867 31.893 55.5053 31.8472L41.9219 24.0025V15.9922L62.7022 28.0029Z" fill="#EBECEE"/>
<path fill-rule="evenodd" clip-rule="evenodd" d="M35 12V27.6889C34.9992 27.7834 35.0235 27.8764 35.0704 27.9585C35.1173 28.0405 35.1852 28.1086 35.267 28.1558L41.9306 32.0002V15.9897L35 12Z" fill="white"/>
<path fill-rule="evenodd" clip-rule="evenodd" d="M41.9303 32.0002L48.8495 28.0004L41.9297 24L41.9303 32.0002Z" fill="white"/>
<path d="M102.75 20.0213C102.601 18.2686 101.804 16.6344 100.514 15.4385C99.2239 14.2425 97.5342 13.5708 95.7753 13.5547H95.4418C94.5997 13.5856 93.7708 13.7741 92.9982 14.1106L92.8321 14.177H92.7543C91.5278 14.7443 90.492 15.6549 89.7725 16.7987C89.0529 17.9426 88.6803 19.2705 88.7 20.6217V20.7552C88.894 24.6268 92.0667 27.6792 95.942 27.7219H99.9625C100.014 27.7219 100.064 27.7118 100.111 27.6923C100.159 27.6727 100.201 27.644 100.238 27.6079C100.274 27.5717 100.302 27.5288 100.322 27.4816C100.341 27.4344 100.351 27.3838 100.351 27.3327V25.0997C100.351 25.0486 100.341 24.998 100.322 24.9508C100.302 24.9035 100.274 24.8606 100.238 24.8245C100.201 24.7883 100.159 24.7597 100.111 24.7401C100.064 24.7205 100.014 24.7105 99.9625 24.7105H95.7753C94.9268 24.6757 94.1096 24.381 93.4341 23.8663C92.7587 23.3517 92.2578 22.6419 91.9991 21.8331H102.273C102.337 21.8317 102.4 21.8175 102.459 21.7916C102.518 21.7656 102.571 21.7283 102.615 21.6818C102.66 21.6353 102.694 21.5805 102.718 21.5205C102.741 21.4606 102.752 21.3967 102.75 21.3324V20.0771C102.754 20.0513 102.754 20.0251 102.75 19.9993M99.4179 19.2548H92.0098C92.3655 18.2503 93.1044 17.4275 94.0649 16.966L94.2203 16.8883C94.7171 16.6892 95.2493 16.5934 95.7844 16.6067C96.3195 16.62 96.8463 16.7421 97.3326 16.9657C97.8189 17.1892 98.2546 17.5095 98.6131 17.9069C98.9717 18.3043 99.2455 18.7706 99.4179 19.2773" fill="white"/>
<path fill-rule="evenodd" clip-rule="evenodd" d="M79.805 13.5519C78.4725 13.6017 77.184 14.0384 76.0947 14.8078V14.0075C76.0947 13.9428 76.0691 13.8807 76.0233 13.8349C75.9776 13.7891 75.9156 13.7633 75.8509 13.7631H73.2405C73.1757 13.7631 73.1135 13.7889 73.0677 13.8347C73.0218 13.8805 72.9961 13.9427 72.9961 14.0075V27.4076C72.9961 27.6224 73.1705 27.7968 73.3847 27.7968H75.6842C75.7353 27.7968 75.7858 27.7867 75.833 27.7672C75.8802 27.7476 75.9231 27.7189 75.9592 27.6828C75.9953 27.6466 76.0239 27.6037 76.0434 27.5565C76.0629 27.5093 76.0729 27.4587 76.0728 27.4076V20.6076C76.0735 20.0525 76.1901 19.5036 76.4151 18.9961C76.6401 18.4886 76.9685 18.0336 77.3794 17.6603C77.7903 17.2869 78.2745 17.0034 78.8012 16.8279C79.3278 16.6524 79.8854 16.5888 80.438 16.641C81.4373 16.7568 82.3582 17.2388 83.0228 17.994C83.6874 18.7492 84.0484 19.7239 84.0362 20.7298V27.3964C84.0362 27.6111 84.2106 27.7855 84.4254 27.7855H86.7575C86.8086 27.7855 86.8592 27.7755 86.9063 27.7559C86.9535 27.7363 86.9964 27.7077 87.0325 27.6715C87.0686 27.6354 87.0972 27.5925 87.1167 27.5452C87.1362 27.498 87.1462 27.4474 87.1461 27.3964V20.6076C87.1438 19.6573 86.9502 18.7172 86.5769 17.8433C86.2035 16.9693 85.658 16.1796 84.973 15.5209C84.2879 14.8624 83.4771 14.3486 82.5891 14.0103C81.7011 13.672 80.754 13.5161 79.8044 13.5519M116.257 13.6189C116.24 13.6014 116.219 13.5875 116.196 13.578C116.173 13.5685 116.148 13.5636 116.124 13.5636C116.099 13.5636 116.074 13.5685 116.051 13.578C116.028 13.5875 116.008 13.6014 115.99 13.6189L111.07 18.5519L106.217 13.6967C106.199 13.6791 106.178 13.6652 106.155 13.6557C106.133 13.6462 106.108 13.6413 106.083 13.6413C106.058 13.6413 106.034 13.6462 106.011 13.6557C105.988 13.6652 105.967 13.6791 105.95 13.6967L103.973 15.674C103.955 15.6915 103.941 15.7123 103.932 15.7352C103.922 15.7581 103.918 15.7827 103.918 15.8075C103.918 15.8323 103.922 15.8568 103.932 15.8797C103.941 15.9027 103.955 15.9235 103.973 15.941L108.826 20.7963L103.862 25.7186C103.844 25.7361 103.831 25.7569 103.821 25.7798C103.812 25.8027 103.807 25.8273 103.807 25.8521C103.807 25.8769 103.812 25.9014 103.821 25.9243C103.831 25.9472 103.844 25.9681 103.862 25.9856L105.795 27.919C105.89 28.014 106.044 28.014 106.139 27.919L111.026 23.0299L115.88 27.8852C115.915 27.9205 115.963 27.9403 116.013 27.9403C116.063 27.9403 116.111 27.9205 116.146 27.8852L118.123 25.9079C118.14 25.8903 118.154 25.8695 118.164 25.8466C118.173 25.8237 118.178 25.7992 118.178 25.7744C118.178 25.7496 118.173 25.725 118.164 25.7021C118.154 25.6792 118.14 25.6584 118.123 25.6409L113.269 20.7856L118.19 15.8633C118.207 15.8457 118.221 15.8249 118.231 15.802C118.24 15.7791 118.245 15.7546 118.245 15.7298C118.245 15.705 118.24 15.6804 118.231 15.6575C118.221 15.6346 118.207 15.6138 118.19 15.5963L116.257 13.6189Z" fill="white"/>
<path d="M126.075 13.5001C124.641 13.4915 123.236 13.909 122.04 14.6997C120.843 15.4903 119.908 16.6186 119.353 17.9413C118.798 19.2642 118.648 20.7221 118.923 22.1302C119.197 23.5384 119.883 24.8334 120.894 25.8513C121.905 26.8689 123.195 27.5632 124.601 27.8463C126.007 28.1294 127.466 27.9884 128.792 27.4413C130.117 26.894 131.251 25.9654 132.049 24.7732C132.846 23.5811 133.272 22.1789 133.272 20.7445C133.272 16.7607 130.056 13.5245 126.075 13.5001ZM126.075 24.9336C125.243 24.9413 124.427 24.7019 123.732 24.2455C123.036 23.7892 122.491 23.1365 122.167 22.3703C121.842 21.604 121.753 20.7587 121.909 19.9415C122.066 19.1243 122.462 18.372 123.046 17.78C123.632 17.1879 124.38 16.7832 125.195 16.6173C126.011 16.4514 126.858 16.5319 127.628 16.8485C128.398 17.1651 129.056 17.7034 129.519 18.3952C129.983 19.0869 130.23 19.9007 130.229 20.7332C130.229 21.8394 129.793 22.9009 129.016 23.6874C128.238 24.4739 127.181 24.9217 126.075 24.9336Z" fill="white"/>
</svg>
