<svg width="8" height="12" viewBox="0 0 8 12" fill="none" xmlns="http://www.w3.org/2000/svg">
<path d="M7.09017 11.9998C7.26752 12.0037 7.44169 11.9523 7.58845 11.8526C7.73521 11.753 7.84728 11.61 7.90906 11.4437C7.97085 11.2774 7.97929 11.096 7.9332 10.9247C7.88712 10.7534 7.78881 10.6008 7.65193 10.4879L2.42935 6.0138L7.65193 1.54126C7.74662 1.47167 7.82591 1.38332 7.88485 1.28167C7.94379 1.18001 7.98111 1.06725 7.99447 0.950508C8.00782 0.833763 7.99693 0.715543 7.96247 0.603203C7.92801 0.490863 7.87073 0.386814 7.79421 0.297637C7.71769 0.208461 7.62358 0.136123 7.51778 0.085001C7.41198 0.0338793 7.29676 0.00516605 7.17934 0.000636101C7.06192 -0.00389481 6.94483 0.0158014 6.8354 0.0586185C6.72598 0.101437 6.62657 0.166385 6.5434 0.2494L0.56402 5.36536C0.470121 5.44549 0.39472 5.54495 0.343017 5.65704C0.291313 5.76914 0.264539 5.89114 0.264539 6.01459C0.264539 6.13803 0.291313 6.26004 0.343017 6.37213C0.39472 6.48422 0.470121 6.58378 0.56402 6.66391L6.5434 11.7848C6.69445 11.919 6.88819 11.9952 7.09017 12V11.9998Z" fill="white"/>
</svg>
