<svg width="108" height="32" viewBox="0 0 108 32" fill="none" xmlns="http://www.w3.org/2000/svg">
<path d="M27.7148 6.36328H34.6569C36.46 6.36328 37.895 6.83763 38.9619 7.78634C40.0287 8.73505 40.5622 9.96987 40.5622 11.4908C40.5622 13.0268 40.0287 14.2692 38.9619 15.2179C37.895 16.1666 36.46 16.6409 34.6569 16.6409H31.4338V23.5303H27.7148V6.36328ZM31.4338 13.456H34.4766C35.2429 13.456 35.8364 13.2753 36.2572 12.9139C36.6929 12.5374 36.9108 12.063 36.9108 11.4908C36.9108 10.9186 36.6929 10.4518 36.2572 10.0903C35.8364 9.72893 35.2429 9.54822 34.4766 9.54822H31.4338V13.456ZM52.4326 20.5487L52.6805 23.1463C52.0043 23.5379 51.3282 23.7336 50.652 23.7336C49.4048 23.7336 48.5483 23.2743 48.0825 22.3558C47.1509 23.3647 45.8962 23.8692 44.3185 23.8692C43.1164 23.8692 42.1397 23.5454 41.3884 22.8979C40.6521 22.2503 40.284 21.407 40.284 20.368C40.284 18.1092 41.8392 16.8668 44.9496 16.6409L47.7219 16.415V16.2795C47.7219 15.7976 47.5716 15.4061 47.2711 15.1049C46.9856 14.8038 46.5874 14.6532 46.0765 14.6532C45.1299 14.6532 44.5589 15.1426 44.3636 16.1214L41.0278 15.4212C41.2832 14.2918 41.8542 13.4183 42.7407 12.8009C43.6423 12.1685 44.7768 11.8522 46.1442 11.8522C47.6918 11.8522 48.9165 12.2438 49.818 13.0268C50.7346 13.8099 51.1929 14.9167 51.1929 16.3473V19.9614C51.1929 20.383 51.3282 20.5939 51.5986 20.5939C51.6437 20.5939 51.7038 20.5939 51.7789 20.5939C51.8541 20.5788 51.9517 20.5713 52.0719 20.5713C52.2072 20.5562 52.3274 20.5487 52.4326 20.5487ZM45.4229 21.1586C46.0841 21.1586 46.6325 20.9628 47.0683 20.5713C47.504 20.1798 47.7219 19.6753 47.7219 19.0579V18.5835L45.5356 18.832C44.5288 18.9374 44.0255 19.3515 44.0255 20.0743C44.0255 20.4207 44.1532 20.6918 44.4086 20.8875C44.6641 21.0682 45.0022 21.1586 45.4229 21.1586ZM65.3053 12.191L57.5969 29.855H53.7878L56.7179 23.1238L52.0072 12.191H55.8164L58.5661 18.8998L61.4962 12.191H65.3053ZM83.1003 6.36328V23.5303H80.7788L70.5911 13.0494V23.5303H66.8722V6.36328H69.2162L79.4039 17.0927V6.36328H83.1003ZM96.9325 17.8607V18.7868H88.6377C88.788 19.4645 89.081 19.999 89.5168 20.3906C89.9525 20.7821 90.4709 20.9779 91.072 20.9779C92.1989 20.9779 93.0028 20.5412 93.4837 19.6678L96.6846 20.3228C96.2038 21.4974 95.475 22.3859 94.4983 22.9882C93.5362 23.5755 92.3943 23.8692 91.072 23.8692C89.4041 23.8692 87.9916 23.312 86.8346 22.1976C85.6776 21.0682 85.0991 19.6226 85.0991 17.8607C85.0991 16.1139 85.6776 14.6758 86.8346 13.5463C87.9916 12.4169 89.4116 11.8522 91.0945 11.8522C92.7324 11.8522 94.1076 12.4019 95.2195 13.5012C96.3315 14.6005 96.9025 16.0536 96.9325 17.8607ZM91.0945 14.7887C90.5686 14.7887 90.0802 14.9468 89.6295 15.263C89.1787 15.5793 88.8706 16.016 88.7054 16.5732H93.371C93.2057 15.9859 92.9202 15.5416 92.5145 15.2405C92.1088 14.9393 91.6354 14.7887 91.0945 14.7887ZM103.202 15.0598V19.216C103.202 19.6678 103.315 20.0216 103.54 20.2776C103.766 20.5186 104.081 20.639 104.487 20.639C105.058 20.639 105.606 20.4885 106.132 20.1873L106.966 23.0334C105.929 23.5906 104.9 23.8692 103.878 23.8692C102.541 23.8692 101.489 23.4927 100.723 22.7397C99.9715 21.9718 99.5959 20.9176 99.5959 19.5774V15.0598H97.4547V12.191H99.5959V8.32846L103.202 7.26681V12.191H107.214V15.0598H103.202Z" fill="white"/>
<path d="M11.2675 4.70312L21.0273 21.6443H1.50781L11.2675 4.70312Z" fill="url(#paint0_radial_4705_869)"/>
<defs>
<radialGradient id="paint0_radial_4705_869" cx="0" cy="0" r="1" gradientUnits="userSpaceOnUse" gradientTransform="translate(4.86878 13.1737) scale(56.1669 178.763)">
<stop stop-color="#ED1D90"/>
<stop stop-color="#E61D8B"/>
<stop offset="1" stop-color="#A11D59"/>
</radialGradient>
</defs>
</svg>
