<svg width="24" height="24" viewBox="0 0 24 24" fill="none" xmlns="http://www.w3.org/2000/svg">
<path fill-rule="evenodd" clip-rule="evenodd" d="M13.8233 2.01341C11.7851 2.24666 10.51 3.406 10.0775 5.4189C10.0025 5.76823 9.99387 5.94521 9.97341 7.55851L9.95112 9.31729L8.47556 9.32752L7 9.33773V11.0956V12.8535L8.47556 12.8637L9.95112 12.8739L9.96067 17.437L9.97022 22H11.737H13.5037V17.4272V12.8544H14.9699C15.7763 12.8544 16.4368 12.8412 16.4378 12.8251C16.4387 12.8089 16.5364 12.0219 16.6548 11.0761L16.8702 9.35637L15.1849 9.34621L13.4996 9.33604L13.5114 7.86102C13.5229 6.41589 13.525 6.38123 13.6122 6.15149C13.7419 5.81009 14.019 5.53897 14.3555 5.42437C14.5949 5.34281 14.6956 5.33561 15.8064 5.32026L17 5.3038V3.72536V2.14688L16.9154 2.12847C16.5687 2.05304 14.2355 1.96619 13.8233 2.01341Z" fill="#F9FAFC"/>
</svg>
