<svg width="24" height="24" viewBox="0 0 24 24" fill="none" xmlns="http://www.w3.org/2000/svg">
<path fill-rule="evenodd" clip-rule="evenodd" d="M3.87617 2.05587C3.22499 2.19618 2.55384 2.72241 2.25964 3.32338C1.80616 4.24971 1.9749 5.33756 2.68705 6.0792C3.625 7.05597 5.18536 7.05566 6.12061 6.07853C6.83433 5.33288 7.00123 4.25358 6.54583 3.32866C6.33688 2.90425 5.88215 2.44882 5.47147 2.2526C4.95397 2.00539 4.41747 1.93924 3.87617 2.05587ZM16.1335 8.3851C14.9257 8.61223 13.8972 9.26966 13.2634 10.2197L13.081 10.4932L13.0705 9.5652L13.06 8.63723H11.0673H9.07463V15.3186V22H11.1462H13.2178L13.2179 18.4932C13.218 16.3113 13.2338 14.8182 13.2598 14.5409C13.3935 13.114 13.925 12.3204 14.9247 12.0548C15.2825 11.9597 15.8837 11.9397 16.2207 12.0116C16.8626 12.1485 17.2255 12.4265 17.4969 12.9891C17.8512 13.7234 17.869 13.9808 17.869 18.3704V22H19.9406H22.0122L22.012 17.9853C22.0119 15.685 21.9951 13.737 21.9725 13.4236C21.8404 11.5844 21.4373 10.4093 20.6499 9.56786C20.1184 8.99978 19.4078 8.63262 18.4582 8.43527C17.9485 8.32934 16.5862 8.29996 16.1335 8.3851ZM2.3391 8.66294C2.3246 8.67744 2.31272 11.6842 2.31272 15.3447V22H4.40395H6.49518L6.48529 15.3284L6.4754 8.65677L4.42044 8.64665C3.29023 8.6411 2.35364 8.64841 2.3391 8.66294Z" fill="#F9FAFC"/>
</svg>
