<svg width="24" height="24" viewBox="0 0 24 24" fill="none" xmlns="http://www.w3.org/2000/svg">
<path fill-rule="evenodd" clip-rule="evenodd" d="M8.36586 2.03374C7.09409 2.08128 6.4218 2.18437 5.66198 2.4484C4.88247 2.71923 4.36444 3.03486 3.77976 3.59521C3.5666 3.79947 3.29494 4.09712 3.17604 4.25666C2.62324 4.99848 2.24681 6.0211 2.11241 7.14622C2.01905 7.92768 1.9851 9.74258 2.00589 12.8389C2.03037 16.477 2.05512 16.9047 2.29585 17.8444C2.81376 19.866 4.23329 21.2481 6.29625 21.7394C6.84721 21.8706 7.40534 21.9257 8.65127 21.9723C10.0757 22.0254 15.6571 21.9967 16.4249 21.9322C18.2004 21.7832 19.3448 21.3091 20.3418 20.3098C21.2428 19.4066 21.6881 18.4471 21.9123 16.9257C21.9703 16.5324 21.9806 15.9659 21.9952 12.391C22.0065 9.64251 21.9978 8.10527 21.9688 7.69285C21.844 5.92294 21.384 4.75059 20.4266 3.76261C19.8567 3.17454 19.3323 2.82036 18.6196 2.54222C17.7641 2.20833 17.0581 2.09273 15.5046 2.0323C14.3789 1.98851 9.54913 1.98949 8.36586 2.03374ZM16.062 3.86999C17.5994 3.95924 18.4407 4.27683 19.1531 5.03698C19.4727 5.37806 19.6487 5.64882 19.8088 6.04572C20.0735 6.70232 20.1509 7.21584 20.2081 8.69678C20.2624 10.1013 20.2321 15.6267 20.1662 16.3394C20.0496 17.5997 19.7112 18.4342 19.0584 19.0716C18.6461 19.4741 18.2194 19.7252 17.6352 19.9091C16.8084 20.1694 15.5576 20.2258 11.2359 20.1976C7.6131 20.1739 7.13341 20.1438 6.34073 19.8902C5.48125 19.6151 4.73025 18.9812 4.33397 18.1962C4.17517 17.8816 4.00447 17.2913 3.93695 16.8233C3.83173 16.0938 3.78352 13.9115 3.80878 11.0228C3.83744 7.74906 3.87649 7.15435 4.11357 6.38063C4.44942 5.28463 5.2464 4.48637 6.36031 4.13035C7.01725 3.92038 7.49679 3.86886 9.16037 3.82949C10.7613 3.79161 15.1559 3.81741 16.062 3.86999ZM16.9881 5.52564C16.4555 5.71559 16.1273 6.22332 16.1845 6.76894C16.2826 7.70641 17.3775 8.17161 18.1152 7.58929C18.3909 7.37166 18.5295 7.09489 18.5513 6.71851C18.5666 6.45444 18.5561 6.39064 18.4639 6.18927C18.3274 5.89115 18.1632 5.72274 17.8738 5.5842C17.6095 5.45766 17.246 5.43361 16.9881 5.52564ZM11.152 6.93731C10.4291 7.05877 9.61101 7.40266 8.99981 7.84198C8.38955 8.2806 7.74245 9.04279 7.40029 9.72605C7.2261 10.0738 7.02089 10.7066 6.94954 11.1159C6.87098 11.5663 6.87098 12.4339 6.94954 12.8843C7.13282 13.9356 7.60977 14.8408 8.39163 15.6212C9.01312 16.2416 9.59088 16.6023 10.3873 16.8668C10.9394 17.0503 11.3942 17.1209 12.0238 17.1211C13.4089 17.1214 14.5956 16.6435 15.5859 15.6866C16.3936 14.9062 16.9164 13.9206 17.0903 12.8504C17.1658 12.3855 17.1657 11.5981 17.0901 11.155C16.7224 9.00053 15.0322 7.30763 12.8836 6.94184C12.4428 6.86678 11.5849 6.86456 11.152 6.93731ZM12.6859 8.73267C14.0229 9.01562 15.0797 10.1038 15.3123 11.437C15.3394 11.5926 15.3499 11.8917 15.3382 12.1722C15.3037 12.991 15.0167 13.6702 14.4481 14.278C13.798 14.9729 12.9851 15.3224 12.0192 15.3224C11.1057 15.3224 10.3705 15.0303 9.71396 14.4065C9.034 13.7605 8.69098 12.9536 8.69098 12.0001C8.69098 11.0359 9.04113 10.2244 9.73726 9.5755C10.2034 9.14091 10.7896 8.83837 11.3951 8.71981C11.6696 8.66605 12.4058 8.6734 12.6859 8.73267Z" fill="#F9FAFC"/>
</svg>
