<svg width="24" height="24" viewBox="0 0 24 24" fill="none" xmlns="http://www.w3.org/2000/svg">
<path fill-rule="evenodd" clip-rule="evenodd" d="M15.5794 2.06147C14.5628 2.22604 13.5985 2.75215 12.8774 3.53559C12.4727 3.97534 12.2578 4.2901 12.0121 4.80287C11.6262 5.60845 11.492 6.29071 11.529 7.25773C11.5432 7.62836 11.5692 7.99332 11.5868 8.0687L11.6188 8.20578L11.2537 8.17324C8.25717 7.90629 5.54569 6.73556 3.32332 4.74925C2.84051 4.31768 2.11375 3.56399 1.77743 3.14594C1.68321 3.02888 1.59811 2.94224 1.58825 2.9534C1.54024 3.00813 1.31661 3.50782 1.21693 3.78314C0.74097 5.09769 0.899684 6.79708 1.61362 8.03105C1.82192 8.39105 2.24964 8.96443 2.38858 9.06989C2.43571 9.1057 2.60285 9.24871 2.75995 9.38767L3.04566 9.64038L2.82333 9.63932C2.70105 9.63874 2.42266 9.5973 2.20463 9.54714C1.84628 9.46474 1.63733 9.38864 1.07747 9.1366L0.896629 9.05521L0.924732 9.52827C1.04423 11.5401 2.48308 13.3661 4.40557 13.946L4.77485 14.0574L4.49817 14.1232C4.32153 14.1653 3.93271 14.1891 3.42282 14.1891C2.92079 14.1891 2.62438 14.2069 2.6248 14.2372C2.62674 14.3754 3.10955 15.2993 3.35911 15.6426C4.16592 16.7523 5.4436 17.4988 6.74156 17.6187L7.13186 17.6548L6.81003 17.8987C5.49666 18.8941 3.85567 19.5475 2.16088 19.7499C1.88188 19.7832 1.31568 19.8002 0.833152 19.7898C0.37039 19.7798 -0.00449658 19.7749 4.07574e-05 19.7788C0.0717585 19.8415 0.866164 20.3015 1.23517 20.494C2.65276 21.2336 4.07828 21.6808 5.68065 21.8883C8.16549 22.2102 10.8013 21.8301 13.0357 20.8278C17.8421 18.6716 21.1258 13.4436 21.211 7.8118L21.2238 6.96998L21.6353 6.62798C22.1424 6.20647 22.888 5.40547 23.2937 4.84629C23.4612 4.61534 23.5909 4.41866 23.5818 4.40918C23.5726 4.3997 23.3798 4.46617 23.1532 4.55695C22.6404 4.76229 21.9586 4.95642 21.3532 5.06949C21.0981 5.11709 20.8844 5.15074 20.8781 5.14419C20.8718 5.13769 21.0105 5.03016 21.1863 4.90525C21.5932 4.6163 22.1216 4.04201 22.4296 3.55422C22.6647 3.18204 22.9789 2.48274 22.9327 2.43471C22.9198 2.42137 22.7674 2.48958 22.5938 2.58633C21.9339 2.95417 20.9384 3.34113 20.2295 3.50541L19.8938 3.58319L19.5707 3.27663C18.5166 2.27644 17.0359 1.82561 15.5794 2.06147Z" fill="#F9FAFC"/>
</svg>
