<svg width="24" height="24" viewBox="0 0 24 24" fill="none" xmlns="http://www.w3.org/2000/svg">
<path d="M11.5017 11.4696V8.25391H8.16038C7.9798 9.20266 7.8681 10.2755 7.84375 11.4696H11.5017Z" fill="white"/>
<path d="M11.5001 7.19404V3C10.2594 3.30949 9.07362 4.72728 8.40234 7.19404H11.5001Z" fill="white"/>
<path d="M6.78334 12.5312H3C3.06442 13.6421 3.33069 14.7163 3.7816 15.7117H7.08293C6.90925 14.7324 6.80825 13.6673 6.78334 12.5312Z" fill="white"/>
<path d="M3 11.4696H6.78224C6.80465 10.3201 6.90501 9.24284 7.08043 8.25391H3.79786C3.33719 9.2592 3.06516 10.3456 3 11.4696V11.4696Z" fill="white"/>
<path d="M12.5625 3.00391V7.19353H15.6511C15.397 6.26987 15.0928 5.57491 14.812 5.06746C14.1844 3.93301 13.4004 3.2194 12.5625 3.00391Z" fill="white"/>
<path d="M11.5005 12.5312H7.84375C7.87156 13.7677 7.98987 14.8205 8.15921 15.7117H11.5005V12.5312H11.5005Z" fill="white"/>
<path d="M15.7379 4.55591C16.1564 5.31239 16.4931 6.19902 16.7443 7.19523H19.6888C19.3305 6.62901 18.9065 6.09791 18.4202 5.61167C17.4349 4.62634 16.2656 3.89623 14.9922 3.45312C15.2605 3.77576 15.5098 4.14377 15.7379 4.55591Z" fill="white"/>
<path d="M16.2194 11.4696C16.1912 10.2167 16.07 9.15255 15.897 8.25391H12.5625V11.4696H16.2194Z" fill="white"/>
<path d="M16.762 16.7734C16.5103 17.791 16.1695 18.6952 15.7434 19.464C15.5205 19.866 15.2772 20.2257 15.0156 20.542C16.2791 20.0981 17.4393 19.3711 18.4181 18.3923C18.9143 17.896 19.3456 17.3528 19.7085 16.7734H16.762Z" fill="white"/>
<path d="M7.3047 7.19427C7.55553 6.19117 7.89325 5.29907 8.31444 4.53917C8.53732 4.13709 8.78062 3.77739 9.0423 3.46094C7.77876 3.90489 6.61844 4.63193 5.63969 5.61068C5.15344 6.09693 4.72938 6.62802 4.37109 7.19424H7.3047V7.19427Z" fill="white"/>
<path d="M16.9727 8.25391C17.1503 9.24287 17.2536 10.3198 17.2789 11.4696H21.0621C20.9969 10.3456 20.7249 9.2592 20.2642 8.25391H16.9727Z" fill="white"/>
<path d="M8.32435 19.4483C7.90082 18.6828 7.56126 17.7841 7.30916 16.7734H4.35156C4.71448 17.3528 5.14571 17.896 5.64199 18.3923C6.62728 19.3776 7.79658 20.1077 9.06998 20.5509C8.80162 20.2283 8.55235 19.8603 8.32435 19.4483Z" fill="white"/>
<path d="M12.5625 12.5312V15.7117H15.9106C16.0872 14.7716 16.1965 13.7106 16.2205 12.5312H12.5625Z" fill="white"/>
<path d="M21.0624 12.5312H17.2802C17.2581 13.6671 17.1598 14.7324 16.9883 15.7117H20.2808C20.7317 14.7163 20.998 13.6421 21.0624 12.5312Z" fill="white"/>
<path d="M12.5625 16.7734V21.0028C13.8092 20.6919 15.0006 19.2622 15.6702 16.7734H12.5625Z" fill="white"/>
<path d="M11.5005 20.9984V16.7734H8.40234C8.65833 17.7148 8.96672 18.4211 9.25105 18.935C9.87872 20.0694 10.6627 20.7829 11.5005 20.9984Z" fill="white"/>
</svg>
