<svg width="32" height="32" viewBox="0 0 32 32" fill="none" xmlns="http://www.w3.org/2000/svg">
<path d="M27.375 10.25H4.625C3.70417 10.25 3 9.54583 3 8.625C3 7.70417 3.70417 7 4.625 7H27.375C28.2958 7 29 7.70417 29 8.625C29 9.54583 28.2958 10.25 27.375 10.25Z" fill="white"/>
<path d="M27.375 17.8359H4.625C3.70417 17.8359 3 17.1318 3 16.2109C3 15.2901 3.70417 14.5859 4.625 14.5859H27.375C28.2958 14.5859 29 15.2901 29 16.2109C29 17.1318 28.2958 17.8359 27.375 17.8359Z" fill="white"/>
<path d="M27.375 25.4102H4.625C3.70417 25.4102 3 24.706 3 23.7852C3 22.8643 3.70417 22.1602 4.625 22.1602H27.375C28.2958 22.1602 29 22.8643 29 23.7852C29 24.706 28.2958 25.4102 27.375 25.4102Z" fill="white"/>
</svg>
